<?xml version="1.0" encoding="utf-8"?>
<!-- Generator: Adobe Illustrator 27.7.0, SVG Export Plug-In . SVG Version: 6.00 Build 0)  -->
<svg version="1.1" id="Layer_1" xmlns="http://www.w3.org/2000/svg" xmlns:xlink="http://www.w3.org/1999/xlink" x="0px" y="0px"
	 viewBox="0 0 1000 1000" style="enable-background:new 0 0 1000 1000;" xml:space="preserve">
<style type="text/css">
	.st0{fill-rule:evenodd;clip-rule:evenodd;fill:#EF3B39;}
</style>
<g>
	<path class="st0" d="M599.22,507.85c-25.19-23.68-53.49-43.56-74.11-71.07c-19.09-25.22-31.32-54.24-36.69-84.82
		c-1.45-8.34-1.9-16.72-1.52-25.06c-5.15,8.24-9.77,17.04-13.74,26.58c-6.13,14.53-9.18,28.29-8.42,44.33
		c0.76,12.99,4.59,29.03,9.17,41.26c18.34,42.79,50.42,66.48,83.29,96.29c22.16,21.4,46.61,46.61,61.14,74.12
		c6.88,12.23,13,28.26,14.51,42.02c0.61,6.42,0.97,13.21,0.9,20.02c1.25-1.81,2.48-3.63,3.69-5.49
		c10.69-16.05,17.57-32.86,19.1-51.96C658.84,572.04,628.28,535.37,599.22,507.85z"/>
	<path class="st0" d="M500,1.79L500,1.79c-276.14,0-500,223.86-500,500v0c0,276.14,223.86,500,500,500h0
		c276.14,0,500-223.86,500-500v0C1000,225.65,776.14,1.79,500,1.79z M749.76,701.19c-6.1,20.63-16.04,42.02-29.82,59.61
		c-14.69,18.76-31.74,36.17-48.92,53.14c-14.5,14.33-37.72,14.68-52.69,0.85l-33.54-30.98c-0.81-0.75-1.57-1.53-2.3-2.33
		c-10.1,11.17-20.8,21.95-31.54,32.55c-14.48,14.29-37.63,14.7-52.63,0.96l-33.99-31.13c-0.85-0.78-1.66-1.6-2.42-2.44
		c-10.06,11.24-20.67,22.08-31.47,32.74c-14.46,14.28-37.59,14.71-52.52,0.92l-33.99-31.4c-15.94-14.72-16.37-39.84-0.83-54.98
		c19.73-19.21,38.08-38.83,53.64-62.66c10.71-16.05,17.56-32.86,19.09-51.96c2.31-42.03-28.28-78.71-57.3-106.23
		c-25.24-23.68-53.52-43.56-74.15-71.07c-19.08-25.22-31.3-54.24-36.65-84.82c-8.4-48.14,16.04-97.82,47.36-132.2
		c10.75-12.09,22.27-22.6,34.28-32.61c14.65-12.22,36.2-11.39,50.11,1.68l32.87,30.88c0.51,0.48,1,0.97,1.48,1.47
		c0.42-0.47,0.84-0.95,1.26-1.41c10.8-12.16,22.67-22.73,34.97-32.8c14.77-12.08,36.27-11.18,50.18,1.89l32.49,30.52
		c0.63,0.59,1.23,1.2,1.81,1.83c0.43-0.48,0.85-0.96,1.28-1.43c10.7-12.04,22.18-22.52,34.14-32.5
		c14.72-12.29,36.38-11.45,50.36,1.68l32.6,30.62c16.45,15.45,15.89,41.66-1.07,56.55c-24.38,21.4-45.1,45.26-57.94,77.37
		c-6.12,14.53-9.17,28.29-8.43,44.33c0,12.99,3.84,29.03,9.18,41.26c17.59,42.79,50.46,66.48,82.54,96.29
		c22.95,21.4,46.63,46.61,61.13,74.12c6.88,12.23,13,28.26,14.52,42.02C754.36,667.56,755.11,685.91,749.76,701.19z"/>
	<path class="st0" d="M478.5,507.85c-25.22-23.68-52.73-43.56-74.13-71.07c-18.35-25.22-31.33-54.24-36.7-84.82
		c-1.3-8.23-1.67-16.5-1.27-24.73c-5.02,8.14-9.48,16.84-13.24,26.25c-6.1,14.53-9.16,28.29-8.42,44.33
		c0,12.99,3.82,29.03,9.18,41.26c17.57,42.79,50.44,66.48,82.54,96.29c22.93,21.4,46.61,46.61,61.13,74.12
		c6.89,12.23,12.99,28.26,14.54,42.02c0.62,6.6,1.11,13.59,1.1,20.6c1.42-2,2.83-4.02,4.22-6.08c9.95-16.05,17.6-32.86,18.35-51.96
		C538.1,572.04,507.53,535.37,478.5,507.85z"/>
</g>
</svg>
